<svg width="50" height="50" viewBox="0 0 50 50" xmlns="http://www.w3.org/2000/svg">
<path d="M49.9527 15.9753C49.9515 14.9165 49.5463 13.9013 48.8259 13.1526C48.1056 12.4039 47.1289 11.9827 46.1101 11.9815H38.4251V3.99384C38.424 2.93498 38.0187 1.91983 37.2984 1.1711C36.578 0.422378 35.6013 0.00121098 34.5826 0H3.84251C2.82377 0.00121098 1.84709 0.422378 1.12673 1.1711C0.406374 1.91983 0.00116509 2.93498 7.58528e-10 3.99384V35.9445C-1.01903e-05 36.3215 0.10267 36.6909 0.296164 37.0098C0.489658 37.3287 0.76606 37.5841 1.0934 37.7466C1.42073 37.909 1.78563 37.9718 2.14587 37.9277C2.50612 37.8836 2.847 37.7345 3.12908 37.4974L11.5275 30.4405L11.5278 37.9414C11.5289 39.0003 11.9342 40.0154 12.6545 40.7642C13.3749 41.5129 14.3515 41.9341 15.3703 41.9353H37.8461L46.8238 49.4789C47.1059 49.716 47.4468 49.8652 47.807 49.9092C48.1673 49.9533 48.5322 49.8905 48.8595 49.7281C49.1868 49.5656 49.4632 49.3102 49.6567 48.9913C49.8502 48.6724 49.9529 48.303 49.9529 47.926L49.9527 15.9753ZM39.7333 38.3855C39.3915 38.0982 38.9651 37.9414 38.5255 37.9414H15.3703L15.37 29.9538H34.5826C35.6013 29.9526 36.578 29.5314 37.2984 28.7827C38.0187 28.0339 38.424 27.0188 38.4251 25.9599V15.9753H46.1101L46.1104 43.7438L39.7333 38.3855Z" fill="#fff"/>
</svg>
