<!DOCTYPE svg PUBLIC "-//W3C//DTD SVG 1.1//EN" "http://www.w3.org/Graphics/SVG/1.1/DTD/svg11.dtd">
<!-- Uploaded to: SVG Repo, www.svgrepo.com, Transformed by: SVG Repo Mixer Tools -->
<svg fill="#000000" height="800px" width="800px" version="1.1" id="Capa_1" xmlns="http://www.w3.org/2000/svg" xmlns:xlink="http://www.w3.org/1999/xlink" viewBox="0 0 476.81 476.81" xml:space="preserve">
<g id="SVGRepo_bgCarrier" stroke-width="0"/>
<g id="SVGRepo_tracerCarrier" stroke-linecap="round" stroke-linejoin="round"/>
<g id="SVGRepo_iconCarrier"> <path d="M474.548,420.567l-75.029-126.636c-2.925-4.952-8.423-7.784-14.007-7.942l-119.455,0.523l59.573-104.002 c2.856-4.991,2.856-11.112,0-16.103L252.46,38.695c-5.773-10.076-22.336-10.076-28.109,0l-73.155,127.713 c-2.854,4.991-2.854,11.112,0,16.103l59.566,104.002l-119.463-0.523c-6.264,0.349-11.082,2.999-14.008,7.942L2.263,420.567 c-2.957,4.999-3.021,11.193-0.159,16.247c2.872,5.054,8.219,8.185,14.024,8.209l147.201,0.648c0.023,0,0.047,0,0.071,0 c5.718,0,11.017-3.021,13.936-7.94l61.068-103.114l61.07,103.114c2.917,4.919,8.217,7.94,13.936,7.94c0.024,0,0.047,0,0.071,0 l147.201-0.648c5.805-0.025,11.152-3.155,14.022-8.209C477.569,431.76,477.505,425.566,474.548,420.567z M238.404,79.334 l54.504,95.127l-54.504,95.141l-54.486-95.141L238.404,79.334z M154.194,413.236l-109.646-0.483l55.888-94.326l109.622,0.475 L154.194,413.236z M322.617,413.236l-55.865-94.335l109.625-0.475l55.887,94.326L322.617,413.236z"/> </g>
</svg>