<svg width="99" height="99" viewBox="0 0 99 99" fill="none" xmlns="http://www.w3.org/2000/svg">
<path d="M64.5596 34.4353L46.1557 52.8392M27.1549 58.0908L31.4516 53.7942M35.7482 63.2468L38.3262 60.6688M43.4821 69.2621L45.2008 67.5434M46.8355 53.8424L50.3888 60.4601C51.734 62.9654 52.4066 64.218 53.2281 64.546C53.9414 64.8309 54.7474 64.7618 55.4018 64.3597C56.1556 63.8967 56.6052 62.5479 57.5044 59.8503L64.2245 39.6896C65.0161 37.3147 65.4121 36.1271 65.1304 35.3374C64.8853 34.6503 64.3446 34.1096 63.6575 33.8645C62.8678 33.5828 61.6802 33.9788 59.3054 34.7704L39.1171 41.4999C36.427 42.3966 35.082 42.8449 34.6188 43.5975C34.2167 44.251 34.1468 45.0559 34.4302 45.7689C34.7565 46.5901 36.004 47.2638 38.4991 48.6111L45.257 52.2602C45.6387 52.4663 45.8295 52.5694 45.9965 52.7017C46.1449 52.8191 46.2788 52.9533 46.3958 53.102C46.5278 53.2694 46.6304 53.4603 46.8355 53.8424Z" stroke="black" stroke-width="2" stroke-linecap="round" stroke-linejoin="round"/>
</svg>
