<svg width="132" height="19" viewBox="0 0 132 19" fill="none" xmlns="http://www.w3.org/2000/svg">
<path d="M42.5536 7.51362C42.2286 7.86289 42.0661 8.34194 42.0661 8.95077C42.0661 9.56046 42.2286 10.0378 42.5536 10.3827C42.8785 10.7285 43.3091 10.9009 43.8453 10.9009C44.3651 10.9009 44.7937 10.7241 45.1309 10.3705C45.468 10.0177 45.6367 9.54392 45.6367 8.95077C45.6367 8.34978 45.468 7.87248 45.1309 7.51886C44.7937 7.1661 44.3651 6.98928 43.8453 6.98928C43.3091 6.98928 42.8785 7.16435 42.5536 7.51362V7.51362ZM44.7653 5.8927C45.1675 6.1601 45.4579 6.52243 45.6367 6.97709V3.30932H47.3427V12.3268H45.6367V10.9131C45.4579 11.3678 45.1675 11.7319 44.7653 12.0036C44.3632 12.2762 43.8777 12.4121 43.3091 12.4121C42.7404 12.4121 42.2286 12.2736 41.7737 11.9975C41.3186 11.7214 40.9634 11.3216 40.7075 10.7973C40.4515 10.2729 40.3236 9.65802 40.3236 8.95077C40.3236 8.24439 40.4515 7.62947 40.7075 7.10513C40.9634 6.58079 41.3186 6.181 41.7737 5.90489C42.2286 5.62879 42.7404 5.4903 43.3091 5.4903C43.8777 5.4903 44.3632 5.62444 44.7653 5.8927" fill="#F2F2F2"/>
<path d="M53.0882 7.26975C52.7754 6.98493 52.3914 6.84296 51.9367 6.84296C51.4736 6.84296 51.0836 6.98493 50.7668 7.26975C50.4501 7.55369 50.2752 7.97264 50.2428 8.52486H53.5209C53.5453 7.97264 53.4008 7.55369 53.0882 7.26975V7.26975ZM55.1902 9.28H50.2428C50.2672 9.88186 50.4297 10.3243 50.7303 10.6083C51.0308 10.8931 51.4045 11.0351 51.8513 11.0351C52.2492 11.0351 52.5804 10.9375 52.8444 10.7424C53.1084 10.5473 53.2771 10.2834 53.3503 9.95067H55.1661C55.0764 10.4219 54.8857 10.8443 54.5932 11.218C54.3008 11.5916 53.9248 11.8843 53.4661 12.0951C53.007 12.3067 52.4971 12.4121 51.9367 12.4121C51.2786 12.4121 50.6938 12.2719 50.182 11.9914C49.6702 11.711 49.2719 11.3112 48.9877 10.7912C48.7032 10.2712 48.5612 9.65802 48.5612 8.95077C48.5612 8.24439 48.7032 7.62947 48.9877 7.10513C49.2719 6.58079 49.6702 6.181 50.182 5.90489C50.6938 5.62879 51.2786 5.4903 51.9367 5.4903C52.6028 5.4903 53.1857 5.62879 53.6852 5.90489C54.1851 6.181 54.5708 6.56076 54.8428 7.04416C55.1152 7.52757 55.2513 8.07803 55.2513 8.69557C55.2513 8.86628 55.231 9.06051 55.1902 9.28" fill="#F2F2F2"/>
<path d="M59.4065 10.6087L61.1125 5.57605H62.9404L60.4422 12.3271H58.3463L55.8481 5.57605H57.6882L59.4065 10.6087" fill="#F2F2F2"/>
<path d="M69.1002 6.19668C69.6811 6.66789 70.0443 7.30981 70.1906 8.12245H68.3755C68.3023 7.76535 68.136 7.48314 67.8755 7.27584C67.6151 7.06855 67.2867 6.9649 66.8887 6.9649C66.4332 6.9649 66.0534 7.13387 65.7491 7.47095C65.4445 7.80803 65.2923 8.301 65.2923 8.95077C65.2923 9.6014 65.4445 10.0944 65.7491 10.4315C66.0534 10.7694 66.4332 10.9375 66.8887 10.9375C67.2867 10.9375 67.6151 10.8339 67.8755 10.6266C68.136 10.4193 68.3023 10.1371 68.3755 9.77996H70.1906C70.0443 10.5926 69.6811 11.2345 69.1002 11.7049C68.5192 12.1761 67.7945 12.4121 66.9253 12.4121C66.2668 12.4121 65.6822 12.2719 65.1703 11.9914C64.6585 11.711 64.2604 11.3112 63.9761 10.7912C63.6916 10.2712 63.5496 9.65802 63.5496 8.95077C63.5496 8.24439 63.6916 7.62947 63.9761 7.10513C64.2604 6.58079 64.6585 6.181 65.1703 5.90489C65.6822 5.62879 66.2668 5.4903 66.9253 5.4903C67.7945 5.4903 68.5192 5.72634 69.1002 6.19668" fill="#F2F2F2"/>
<path d="M77.2954 6.24585C77.7587 6.758 77.9896 7.47744 77.9896 8.40331V12.3271H76.2841V8.59841C76.2841 8.06188 76.1457 7.64554 75.8695 7.34941C75.5934 7.0524 75.2154 6.90432 74.7364 6.90432C74.2486 6.90432 73.8593 7.06285 73.5666 7.37989C73.274 7.69606 73.1277 8.15159 73.1277 8.74473V12.3271H71.4092V3.30972H73.1277V6.92871C73.3062 6.47405 73.6006 6.11869 74.0108 5.86261C74.4211 5.60654 74.8949 5.4785 75.4306 5.4785C76.211 5.4785 76.832 5.73458 77.2954 6.24585" fill="#F2F2F2"/>
<path d="M81.3899 7.51362C81.0642 7.86289 80.9022 8.34194 80.9022 8.95077C80.9022 9.56046 81.0642 10.0378 81.3899 10.3827C81.7148 10.7285 82.1451 10.9009 82.6816 10.9009C83.2016 10.9009 83.6301 10.7241 83.9672 10.3705C84.3043 10.0177 84.4724 9.54392 84.4724 8.95077C84.4724 8.34978 84.3043 7.87248 83.9672 7.51886C83.6301 7.1661 83.2016 6.98928 82.6816 6.98928C82.1451 6.98928 81.7148 7.16435 81.3899 7.51362V7.51362ZM83.6075 5.8927C84.0134 6.1601 84.3025 6.52243 84.4724 6.97709V5.57566H86.1787V12.3268H84.4724V10.9131C84.3025 11.3678 84.0134 11.7319 83.6075 12.0036C83.2016 12.2762 82.7138 12.4121 82.1451 12.4121C81.5763 12.4121 81.0642 12.2736 80.6095 11.9975C80.1549 11.7214 79.7995 11.3216 79.5434 10.7973C79.2873 10.2729 79.1593 9.65802 79.1593 8.95077C79.1593 8.24439 79.2873 7.62947 79.5434 7.10513C79.7995 6.58079 80.1549 6.181 80.6095 5.90489C81.0642 5.62879 81.5763 5.4903 82.1451 5.4903C82.7138 5.4903 83.2016 5.62444 83.6075 5.8927" fill="#F2F2F2"/>
<path d="M89.4571 3.30972V12.3271H87.7386V3.30972H89.4571Z" fill="#F2F2F2"/>
<path d="M92.7346 3.30972V12.3271H91.0162V3.30972H92.7346Z" fill="#F2F2F2"/>
<path d="M98.4806 7.26975C98.1671 6.98493 97.7838 6.84296 97.3292 6.84296C96.8658 6.84296 96.4756 6.98493 96.1585 7.26975C95.8424 7.55369 95.6673 7.97264 95.6351 8.52486H98.9126C98.937 7.97264 98.7933 7.55369 98.4806 7.26975V7.26975ZM100.582 9.28H95.6351C95.6595 9.88186 95.8215 10.3243 96.122 10.6083C96.4225 10.8931 96.7961 11.0351 97.2438 11.0351C97.641 11.0351 97.9728 10.9375 98.2367 10.7424C98.5007 10.5473 98.6688 10.2834 98.7419 9.95067H100.558C100.468 10.4219 100.277 10.8443 99.9857 11.218C99.693 11.5916 99.3168 11.8843 98.8578 12.0951C98.3987 12.3067 97.8892 12.4121 97.3292 12.4121C96.6707 12.4121 96.0863 12.2719 95.5741 11.9914C95.062 11.711 94.6639 11.3112 94.38 10.7912C94.0952 10.2712 93.9532 9.65802 93.9532 8.95077C93.9532 8.24439 94.0952 7.62947 94.38 7.10513C94.6639 6.58079 95.062 6.181 95.5741 5.90489C96.0863 5.62879 96.6707 5.4903 97.3292 5.4903C97.9946 5.4903 98.5782 5.62879 99.0773 5.90489C99.5772 6.181 99.9631 6.56076 100.235 7.04416C100.507 7.52757 100.643 8.07803 100.643 8.69557C100.643 8.86628 100.623 9.06051 100.582 9.28" fill="#F2F2F2"/>
<path d="M107.748 6.24585C108.211 6.758 108.442 7.47744 108.442 8.40331V12.3271H106.736V8.59841C106.736 8.06188 106.597 7.64554 106.322 7.34941C106.045 7.0524 105.668 6.90432 105.188 6.90432C104.701 6.90432 104.311 7.06285 104.018 7.37989C103.727 7.69606 103.58 8.15159 103.58 8.74473V12.3271H101.862V5.57605H103.58V6.92871C103.759 6.47405 104.053 6.11869 104.463 5.86261C104.874 5.60654 105.347 5.4785 105.883 5.4785C106.663 5.4785 107.285 5.73458 107.748 6.24585" fill="#F2F2F2"/>
<path d="M111.842 7.51433C111.517 7.8636 111.355 8.34265 111.355 8.95148C111.355 9.56117 111.517 10.0385 111.842 10.3834C112.167 10.7292 112.598 10.9016 113.133 10.9016C113.653 10.9016 114.082 10.7248 114.419 10.3712C114.756 10.0184 114.925 9.54462 114.925 8.95148C114.925 8.35049 114.756 7.87319 114.419 7.51956C114.082 7.16681 113.653 6.98999 113.133 6.98999C112.598 6.98999 112.167 7.16506 111.842 7.51433V7.51433ZM114.06 5.89341C114.466 6.16081 114.754 6.52314 114.925 6.9778V5.57637H116.631V12.3518C116.631 12.9772 116.507 13.5399 116.259 14.0398C116.011 14.5389 115.642 14.9309 115.151 15.2157C114.658 15.4996 114.064 15.6416 113.365 15.6416C112.39 15.6416 111.602 15.4108 111.001 14.9474C110.4 14.484 110.034 13.8543 109.905 13.0582H111.598C111.695 13.3997 111.884 13.6653 112.165 13.8569C112.445 14.0477 112.804 14.1435 113.243 14.1435C113.747 14.1435 114.153 13.9945 114.462 13.6984C114.771 13.4014 114.925 12.9528 114.925 12.3518V10.9138C114.754 11.3685 114.466 11.7326 114.06 12.0043C113.653 12.2769 113.166 12.4128 112.598 12.4128C112.029 12.4128 111.517 12.2743 111.062 11.9982C110.607 11.7221 110.252 11.3223 109.996 10.798C109.74 10.2736 109.612 9.65872 109.612 8.95148C109.612 8.2451 109.74 7.63018 109.996 7.10584C110.252 6.5815 110.607 6.18171 111.062 5.9056C111.517 5.6295 112.029 5.49101 112.598 5.49101C113.166 5.49101 113.653 5.62515 114.06 5.89341Z" fill="#F2F2F2"/>
<path d="M122.376 7.27048C122.063 6.98667 121.679 6.8437 121.224 6.8437C120.762 6.8437 120.372 6.98667 120.054 7.27048C119.737 7.555 119.563 7.97329 119.531 8.52571H122.808C122.833 7.97329 122.689 7.555 122.376 7.27048ZM124.478 9.28124H119.531C119.555 9.88289 119.717 10.3253 120.018 10.6093C120.319 10.8941 120.692 11.0361 121.139 11.0361C121.537 11.0361 121.868 10.9385 122.132 10.7434C122.396 10.5483 122.564 10.2844 122.638 9.9517H124.453C124.364 10.4229 124.174 10.8453 123.881 11.219C123.588 11.5926 123.213 11.8852 122.754 12.096C122.295 12.3076 121.785 12.4131 121.224 12.4131C120.566 12.4131 119.981 12.2729 119.469 11.9924C118.958 11.712 118.56 11.3122 118.275 10.7921C117.991 10.2722 117.849 9.65904 117.849 8.95221C117.849 8.24539 117.991 7.63006 118.275 7.10552C118.56 6.58188 118.958 6.18244 119.469 5.90543C119.981 5.62931 120.566 5.4917 121.224 5.4917C121.891 5.4917 122.473 5.62931 122.973 5.90543C123.472 6.18244 123.858 6.56222 124.131 7.04476C124.403 7.52846 124.539 8.07891 124.539 8.69621C124.539 8.86688 124.519 9.06186 124.478 9.28124" fill="#F2F2F2"/>
<path d="M130.059 6.11287C130.555 6.52713 130.864 7.07977 130.985 7.77011H129.376C129.312 7.44529 129.165 7.18508 128.938 6.99022C128.711 6.79518 128.414 6.6978 128.049 6.6978C127.756 6.6978 127.529 6.76689 127.365 6.90488C127.204 7.04316 127.122 7.22998 127.122 7.46545C127.122 7.65246 127.187 7.80269 127.317 7.91631C127.447 8.03013 127.61 8.11938 127.805 8.18436C128 8.24944 128.28 8.32666 128.645 8.41592C129.157 8.52982 129.573 8.64961 129.895 8.77547C130.216 8.90151 130.492 9.10047 130.724 9.37263C130.955 9.64507 131.07 10.0126 131.07 10.4751C131.07 11.0526 130.845 11.5195 130.394 11.8765C129.943 12.2345 129.336 12.4131 128.573 12.4131C127.695 12.4131 126.992 12.2162 126.464 11.8217C125.936 11.428 125.615 10.8654 125.502 10.1345H127.146C127.187 10.4672 127.334 10.7294 127.586 10.9202C127.837 11.1109 128.166 11.2067 128.573 11.2067C128.865 11.2067 129.089 11.1354 129.243 10.9934C129.397 10.8514 129.474 10.6668 129.474 10.4385C129.474 10.2435 129.407 10.0858 129.273 9.96383C129.139 9.84189 128.973 9.74871 128.773 9.68336C128.574 9.61809 128.292 9.54143 127.926 9.4518C127.422 9.33808 127.015 9.22231 126.702 9.10439C126.39 8.98675 126.121 8.79787 125.898 8.53785C125.674 8.27783 125.562 7.92051 125.562 7.46545C125.562 6.88051 125.786 6.40528 126.233 6.03967C126.679 5.67423 127.297 5.49133 128.085 5.49133C128.906 5.49133 129.563 5.69852 130.059 6.11287" fill="#F2F2F2"/>
<path d="M35.6063 11.6139L24.8643 17.3206C24.515 17.5062 24.1213 17.6046 23.7276 17.6046C22.827 17.6046 22.0057 17.1107 21.5841 16.3164C21.2801 15.7433 21.2166 15.0883 21.4064 14.4681C21.5963 13.848 22.0161 13.3402 22.5884 13.0362L33.3304 7.32945C33.6796 7.14306 34.0725 7.04638 34.467 7.04638C34.8058 7.04638 35.1342 7.11605 35.4338 7.2467L35.6054 7.33816C36.0339 7.56462 36.3806 7.91127 36.6079 8.3398C36.6158 8.35287 36.6245 8.36593 36.6332 8.379C37.2255 9.5531 36.7717 10.9946 35.6063 11.6139ZM2.05377 10.6148C2.04855 10.6044 2.04071 10.5957 2.03374 10.5852C1.43188 9.40852 1.88393 7.95918 3.05455 7.33816L13.7965 1.63052C14.1458 1.44587 14.5386 1.34658 14.9332 1.34658C15.8329 1.34658 16.6543 1.84043 17.0767 2.63478C17.3798 3.20615 17.4425 3.86289 17.2527 4.48217C17.0628 5.10232 16.6438 5.61185 16.0725 5.91496L5.33046 11.6226C4.98119 11.8081 4.5875 11.9057 4.19381 11.9057C3.85499 11.9057 3.52663 11.8351 3.227 11.7062L3.05455 11.6139C2.62689 11.3874 2.2811 11.0416 2.05377 10.6148V10.6148ZM37.3796 7.92435C37.0304 7.26849 36.4799 6.76331 35.8275 6.46804L27.7551 2.18013L25.6264 1.04957L25.6186 1.04521L25.2728 0.862304C24.8216 0.62278 24.3164 0.49213 23.8078 0.479066C23.7982 0.479066 23.7886 0.47733 23.779 0.47733C23.7616 0.47733 23.7442 0.475587 23.7276 0.475587L23.7181 0.476454C22.6859 0.466002 21.6651 0.936338 21.0162 1.82911L14.0688 11.0756C13.925 11.2672 13.9633 11.5407 14.1559 11.6853C14.3483 11.8299 14.6209 11.7907 14.7655 11.5982L21.7165 2.34562C22.5021 1.26384 24.022 1.02344 25.1047 1.80908C25.832 2.33864 26.2065 3.22009 26.0811 4.11112C26.0262 4.50132 25.8738 4.8776 25.6456 5.19115L18.2299 15.0682C18.2195 14.7817 18.1724 14.4943 18.0862 14.2138C17.8284 13.3716 17.2587 12.68 16.4809 12.2663L10.5742 9.11673C10.3616 9.0035 10.0978 9.08451 9.98541 9.29703C9.87209 9.50868 9.9531 9.77259 10.1657 9.88582L16.0725 13.0362C16.6447 13.3402 17.0636 13.848 17.2535 14.4681C17.4434 15.0883 17.3807 15.7433 17.0767 16.3164C16.818 16.8033 16.4087 17.1761 15.9244 17.3929C15.8591 17.413 15.7929 17.4313 15.7258 17.4478C15.6657 17.46 15.6117 17.4853 15.5655 17.5201C15.3626 17.575 15.1501 17.6046 14.9332 17.6046C14.5386 17.6046 14.1458 17.5062 13.7965 17.3206L6.52285 13.456L5.03432 12.666C5.2782 12.6007 5.51511 12.5093 5.73896 12.3917L16.4809 6.68491C17.2579 6.27119 17.8275 5.58049 18.0853 4.73824C18.3431 3.89424 18.2578 3.00235 17.8458 2.22629C17.2718 1.14625 16.1561 0.475587 14.9332 0.475587C14.3967 0.475587 13.8627 0.609715 13.388 0.862304L2.64605 6.5682C1.0408 7.42091 0.428493 9.42071 1.2812 11.026C1.63047 11.6827 2.18094 12.187 2.83331 12.4831L2.984 12.5633H2.98574L5.3923 13.8419L13.388 18.0897C13.8627 18.3423 14.3967 18.4756 14.9332 18.4756C15.3939 18.4756 15.8399 18.3798 16.2467 18.2038C16.8894 17.9852 17.4512 17.575 17.8493 17.0271L26.3467 5.7094C26.662 5.2739 26.8684 4.76437 26.9434 4.23306C27.02 3.68694 26.9582 3.14693 26.7787 2.64785L28.0774 3.33681L33.6256 6.28513C33.3818 6.34958 33.1448 6.44104 32.9219 6.55949L28.0783 9.13241L24.664 7.33032C24.4507 7.21884 24.1885 7.30158 24.077 7.51498C23.9655 7.72837 24.0474 7.99141 24.2608 8.1029L27.1463 9.62888L22.179 12.2663C21.4021 12.68 20.8316 13.3716 20.5738 14.2138C20.3159 15.0543 20.4013 15.9471 20.815 16.7249C21.3881 17.804 22.5039 18.4756 23.7276 18.4756C24.2633 18.4756 24.7981 18.3423 25.2728 18.0897L36.0148 12.383C37.62 11.5294 38.2323 9.53133 37.3796 7.92435" fill="#F0402C"/>
<path d="M28.0774 3.33691L26.7787 2.64795L26.7779 2.64622C26.5244 1.97903 26.1237 1.35017 25.6264 1.04967L27.7551 2.18023C27.9171 2.54779 28.0269 2.93538 28.0774 3.33691" fill="#C73622"/>
<path d="M5.39228 13.8418L2.98572 12.5632C3.02395 12.5762 3.64811 12.7827 4.29787 12.7827C4.55046 12.7827 4.80689 12.7513 5.0343 12.666L6.52283 13.4559C6.1666 13.6406 5.7851 13.7686 5.39228 13.8418" fill="#C73622"/>
</svg>
