<svg width="43" height="43" viewBox="0 0 43 43" fill="none" xmlns="http://www.w3.org/2000/svg">
<circle cx="21.7351" cy="21.5981" r="20.5" stroke="#828282"/>
<g clip-path="url(#clip0)">
<path d="M19.4503 29.8258C18.672 29.8258 17.8708 29.7627 17.0648 29.6364C15.6452 29.4137 14.2082 28.6711 13.8016 28.4488L12.7351 27.8657L13.8898 27.486C15.152 27.071 15.9198 26.8135 16.8702 26.4103C15.9185 25.9494 15.185 25.1203 14.832 24.0486L14.5634 23.2332L14.7836 23.2668C14.5748 23.0563 14.4098 22.8426 14.282 22.6483C13.8273 21.9577 13.5865 21.1138 13.6378 20.3906L13.6883 19.6788L14.1144 19.8439C13.9347 19.5044 13.8048 19.1419 13.7284 18.7619C13.5423 17.8352 13.6981 16.8507 14.167 15.9898L14.5382 15.3084L15.0347 15.9046C16.6048 17.7907 18.5934 18.9095 20.9537 19.2371C20.8573 18.5725 20.9295 17.9312 21.1686 17.3563C21.447 16.687 21.9422 16.1194 22.6002 15.7149C23.3311 15.2656 24.2174 15.048 25.0959 15.102C26.028 15.1592 26.8742 15.5084 27.5463 16.1126C27.8745 16.0273 28.1163 15.9362 28.4432 15.8132C28.6398 15.7392 28.8628 15.6551 29.1419 15.559L30.1702 15.2047L29.4996 17.1199C29.5438 17.1162 29.5894 17.113 29.6371 17.1109L30.7352 17.0612L30.0862 17.9482C30.0489 17.999 30.0395 18.0135 30.0263 18.0334C29.974 18.1122 29.9089 18.2102 29.018 19.3998C28.795 19.6977 28.6836 20.0856 28.7044 20.4924C28.7833 22.0381 28.5937 23.4367 28.1404 24.649C27.7116 25.796 27.0472 26.7801 26.1658 27.574C25.0752 28.5562 23.6845 29.2287 22.0321 29.5725C21.2216 29.7412 20.3512 29.8258 19.4503 29.8258V29.8258Z" fill="#828282"/>
</g>
<defs>
<clipPath id="clip0">
<rect width="18" height="17.9999" fill="white" transform="translate(12.7351 13.4419)"/>
</clipPath>
</defs>
</svg>
